<mxfile host="app.diagrams.net" modified="2024-06-25T13:16:54.019Z" agent="Mozilla/5.0 (Windows NT 10.0; Win64; x64) AppleWebKit/537.36 (KHTML, like Gecko) Chrome/123.0.0.0 Safari/537.36 OPR/109.0.0.0" version="24.6.2" etag="4ckTBX0CufRlS5CCJQsG" type="github">
  <diagram name="PÃ¡gina-1" id="rWPRpkuRnpbVvQC8LvC8">
    <mxGraphModel>
      <root>
        <mxCell id="0" />
        <mxCell id="1" parent="0" />
      </root>
    </mxGraphModel>
  </diagram>
</mxfile>
